<?xml version="1.0" encoding="UTF-8" standalone="no" ?>
<!DOCTYPE svg PUBLIC "-//W3C//DTD SVG 1.1//EN" "http://www.w3.org/Graphics/SVG/1.1/DTD/svg11.dtd">
<svg xmlns="http://www.w3.org/2000/svg" xmlns:xlink="http://www.w3.org/1999/xlink" version="1.1" width="500" height="500" viewBox="0 0 500 500" xml:space="preserve">
<desc>Created with Fabric.js 4.6.0</desc>
<defs>
</defs>
<g transform="matrix(1.19 1.19 -1.19 1.19 250.09 250.09)" id="copkFv441fvt36eAFWeCh"  >
<path style="stroke: rgb(252,109,0); stroke-width: 10; stroke-dasharray: none; stroke-linecap: butt; stroke-dashoffset: 0; stroke-linejoin: miter; stroke-miterlimit: 4; fill: none; fill-rule: nonzero; opacity: 1;" vector-effect="non-scaling-stroke"  transform=" translate(0, 0)" d="M -50 -149.30608 C -50 -149.68932 -49.68932 -150 -49.30608 -150 L 49.67061999999999 -150 L 49.67061999999999 -150 C 49.852529999999994 -150 49.99999999999999 -149.85253 49.99999999999999 -149.67062 L 49.99999999999999 149.30607 L 49.99999999999999 149.30607 C 49.99999999999999 149.68931 49.689319999999995 149.99999 49.306079999999994 149.99999 L -49.67062 149.99999 L -49.67062 149.99999 C -49.85253 149.99999 -50 149.85252 -50 149.67061 z" stroke-linecap="round" />
</g>
<g transform="matrix(0.82 0.82 -1.19 1.19 372.08 66.36)" id="cw7j_-G0ulKmAeS_1-DkR"  >
<path style="stroke: rgb(161,108,189); stroke-width: 0; stroke-dasharray: none; stroke-linecap: butt; stroke-dashoffset: 0; stroke-linejoin: miter; stroke-miterlimit: 4; fill: rgb(252,109,0); fill-rule: nonzero; opacity: 1;" vector-effect="non-scaling-stroke"  transform=" translate(0, 0)" d="M -37.5 -5 L 37.5 -5 L 37.5 5 L -37.5 5 z" stroke-linecap="round" />
</g>
<g transform="matrix(0.82 0.82 -1.19 1.19 219.07 219.07)" id="sY9y1-CCytecqQl29Iw2U"  >
<path style="stroke: rgb(161,108,189); stroke-width: 0; stroke-dasharray: none; stroke-linecap: butt; stroke-dashoffset: 0; stroke-linejoin: miter; stroke-miterlimit: 4; fill: rgb(252,109,0); fill-rule: nonzero; opacity: 1;" vector-effect="non-scaling-stroke"  transform=" translate(0, 0)" d="M -37.5 -5 L 37.5 -5 L 37.5 5 L -37.5 5 z" stroke-linecap="round" />
</g>
<g transform="matrix(0.82 0.82 -1.19 1.19 65.47 373.26)" id="FkugZ0JoQOKAwuM0BOgCJ"  >
<path style="stroke: rgb(161,108,189); stroke-width: 0; stroke-dasharray: none; stroke-linecap: butt; stroke-dashoffset: 0; stroke-linejoin: miter; stroke-miterlimit: 4; fill: rgb(252,109,0); fill-rule: nonzero; opacity: 1;" vector-effect="non-scaling-stroke"  transform=" translate(0, 0)" d="M -37.5 -5 L 37.5 -5 L 37.5 5 L -37.5 5 z" stroke-linecap="round" />
</g>
<g transform="matrix(0.48 0.48 -1.19 1.19 92.03 328.71)" id="oKWgaxpc-Ebiggri7JMHH"  >
<path style="stroke: rgb(161,108,189); stroke-width: 0; stroke-dasharray: none; stroke-linecap: butt; stroke-dashoffset: 0; stroke-linejoin: miter; stroke-miterlimit: 4; fill: rgb(252,109,0); fill-rule: nonzero; opacity: 1;" vector-effect="non-scaling-stroke"  transform=" translate(0, 0)" d="M -37.5 -5 L 37.5 -5 L 37.5 5 L -37.5 5 z" stroke-linecap="round" />
</g>
<g transform="matrix(0.48 0.48 -1.19 1.19 169.72 251.36)" id="VE21dG74WwpNOcuu1WSq-"  >
<path style="stroke: rgb(161,108,189); stroke-width: 0; stroke-dasharray: none; stroke-linecap: butt; stroke-dashoffset: 0; stroke-linejoin: miter; stroke-miterlimit: 4; fill: rgb(252,109,0); fill-rule: nonzero; opacity: 1;" vector-effect="non-scaling-stroke"  transform=" translate(0, 0)" d="M -37.5 -5 L 37.5 -5 L 37.5 5 L -37.5 5 z" stroke-linecap="round" />
</g>
<g transform="matrix(0.48 0.48 -1.19 1.19 132.31 288.77)" id="gnjINRA1ikWYJUSQZMfeo"  >
<path style="stroke: rgb(161,108,189); stroke-width: 0; stroke-dasharray: none; stroke-linecap: butt; stroke-dashoffset: 0; stroke-linejoin: miter; stroke-miterlimit: 4; fill: rgb(252,109,0); fill-rule: nonzero; opacity: 1;" vector-effect="non-scaling-stroke"  transform=" translate(0, 0)" d="M -37.5 -5 L 37.5 -5 L 37.5 5 L -37.5 5 z" stroke-linecap="round" />
</g>
<g transform="matrix(0.48 0.48 -1.19 1.19 250.47 170.15)" id="n9-fNtx57cQt9a_4-rLH7"  >
<path style="stroke: rgb(161,108,189); stroke-width: 0; stroke-dasharray: none; stroke-linecap: butt; stroke-dashoffset: 0; stroke-linejoin: miter; stroke-miterlimit: 4; fill: rgb(252,109,0); fill-rule: nonzero; opacity: 1;" vector-effect="non-scaling-stroke"  transform=" translate(0, 0)" d="M -37.5 -5 L 37.5 -5 L 37.5 5 L -37.5 5 z" stroke-linecap="round" />
</g>
<g transform="matrix(0.48 0.48 -1.19 1.19 328.08 92.71)" id="tGX0-pbwuyHr4ByX0V3fx"  >
<path style="stroke: rgb(161,108,189); stroke-width: 0; stroke-dasharray: none; stroke-linecap: butt; stroke-dashoffset: 0; stroke-linejoin: miter; stroke-miterlimit: 4; fill: rgb(252,109,0); fill-rule: nonzero; opacity: 1;" vector-effect="non-scaling-stroke"  transform=" translate(0, 0)" d="M -37.5 -5 L 37.5 -5 L 37.5 5 L -37.5 5 z" stroke-linecap="round" />
</g>
<g transform="matrix(0.48 0.48 -1.19 1.19 290.66 130.13)" id="G7_ytPkIIBknfKprMjmCs"  >
<path style="stroke: rgb(161,108,189); stroke-width: 0; stroke-dasharray: none; stroke-linecap: butt; stroke-dashoffset: 0; stroke-linejoin: miter; stroke-miterlimit: 4; fill: rgb(252,109,0); fill-rule: nonzero; opacity: 1;" vector-effect="non-scaling-stroke"  transform=" translate(0, 0)" d="M -37.5 -5 L 37.5 -5 L 37.5 5 L -37.5 5 z" stroke-linecap="round" />
</g>
</svg>